<?xml version="1.0" encoding="UTF-8" standalone="no"?>
<svg
   xmlns:dc="http://purl.org/dc/elements/1.1/"
   xmlns:cc="http://creativecommons.org/ns#"
   xmlns:rdf="http://www.w3.org/1999/02/22-rdf-syntax-ns#"
   xmlns:svg="http://www.w3.org/2000/svg"
   xmlns="http://www.w3.org/2000/svg"
   viewBox="0 0 1333.3333 1333.3333"
   height="1333.3333"
   width="1333.3333"
   xml:space="preserve"
   id="svg2"
   version="1.1"><metadata
     id="metadata8"><rdf:RDF><cc:Work
         rdf:about=""><dc:format>image/svg+xml</dc:format><dc:type
           rdf:resource="http://purl.org/dc/dcmitype/StillImage" /></cc:Work></rdf:RDF></metadata><defs
     id="defs6" /><g
     transform="matrix(1.3333333,0,0,-1.3333333,0,1333.3333)"
     id="g10"><g
       transform="scale(0.1)"
       id="g12"><path
         id="path14"
         style="fill:#000000;fill-opacity:1;fill-rule:nonzero;stroke:none"
         d="m 453.305,9478.23 68.468,-24.93 24.922,68.47 -68.468,24.93 z m -11.668,-5.44 31.144,85.57 85.582,-31.14 -31.144,-85.58 -85.582,31.15" /><path
         id="path16"
         style="fill:#000000;fill-opacity:1;fill-rule:nonzero;stroke:none"
         d="m 434.629,8469.52 95.855,-34.89 34.887,95.85 -95.855,34.89 z m -16.344,-7.63 43.61,119.82 119.82,-43.6 -43.61,-119.82 -119.82,43.6" /><path
         id="path18"
         style="fill:#000000;fill-opacity:1;fill-rule:nonzero;stroke:none"
         d="m 415.953,7460.81 123.242,-44.86 44.852,123.24 -123.242,44.86 z m -21.012,-9.8 56.071,154.05 154.047,-56.07 -56.071,-154.05 -154.047,56.07" /><path
         id="path20"
         style="fill:#000000;fill-opacity:1;fill-rule:nonzero;stroke:none"
         d="m 397.273,6452.1 150.625,-54.82 54.829,150.62 -150.625,54.82 z m -25.675,-11.98 68.523,188.29 188.281,-68.53 -68.523,-188.29 -188.281,68.53" /><path
         id="path22"
         style="fill:#000000;fill-opacity:1;fill-rule:nonzero;stroke:none"
         d="m 378.598,5443.39 178.011,-64.8 64.793,178.02 -178.011,64.8 z m -30.352,-14.15 80.992,222.51 222.516,-80.99 -80.992,-222.51 -222.516,80.99" /><path
         id="path24"
         style="fill:#000000;fill-opacity:1;fill-rule:nonzero;stroke:none"
         d="m 359.922,4434.68 205.398,-74.76 74.758,205.4 -205.398,74.76 z m -35.02,-16.33 93.45,256.75 256.746,-93.45 -93.45,-256.75 -256.746,93.45" /><path
         id="path26"
         style="fill:#000000;fill-opacity:1;fill-rule:nonzero;stroke:none"
         d="m 341.246,3425.97 232.781,-84.73 84.727,232.79 -232.781,84.73 z m -39.691,-18.51 105.91,290.99 290.98,-105.91 -105.91,-290.99 -290.98,105.91" /><path
         id="path28"
         style="fill:#000000;fill-opacity:1;fill-rule:nonzero;stroke:none"
         d="m 322.566,2417.27 260.172,-94.7 94.696,260.16 -260.172,94.7 z m -44.359,-20.7 118.371,325.22 325.215,-118.36 -118.371,-325.22 -325.215,118.36" /><path
         id="path30"
         style="fill:#000000;fill-opacity:1;fill-rule:nonzero;stroke:none"
         d="m 303.891,1408.55 287.558,-104.66 104.66,287.56 -287.558,104.66 z m -49.028,-22.86 130.825,359.45 359.449,-130.83 -130.824,-359.45 -359.45,130.83" /><path
         id="path32"
         style="fill:#000000;fill-opacity:1;fill-rule:nonzero;stroke:none"
         d="M 285.211,399.84 600.156,285.211 714.789,600.16 399.844,714.789 Z M 231.516,374.801 374.805,768.492 768.484,625.199 625.195,231.512 231.516,374.801" /><path
         id="path34"
         style="fill:#000000;fill-opacity:1;fill-rule:nonzero;stroke:none"
         d="m 1457.37,9480.12 62.51,-22.75 22.75,62.51 -62.51,22.75 z m -10.66,-4.97 28.44,78.14 78.14,-28.44 -28.44,-78.14 -78.14,28.44" /><path
         id="path36"
         style="fill:#000000;fill-opacity:1;fill-rule:nonzero;stroke:none"
         d="m 1440.31,8472.17 87.52,-31.86 31.86,87.52 -87.52,31.86 z m -14.92,-6.96 39.82,109.4 109.4,-39.82 -39.82,-109.4 -109.4,39.82" /><path
         id="path38"
         style="fill:#000000;fill-opacity:1;fill-rule:nonzero;stroke:none"
         d="m 1423.26,7464.22 112.53,-40.96 40.95,112.52 -112.53,40.96 z m -19.18,-8.95 51.19,140.65 140.65,-51.19 -51.19,-140.65 -140.65,51.19" /><path
         id="path40"
         style="fill:#000000;fill-opacity:1;fill-rule:nonzero;stroke:none"
         d="m 1406.21,6456.26 137.53,-50.05 50.05,137.53 -137.53,50.05 z m -23.45,-10.93 62.57,171.91 171.91,-62.57 -62.57,-171.91 -171.91,62.57" /><path
         id="path42"
         style="fill:#000000;fill-opacity:1;fill-rule:nonzero;stroke:none"
         d="m 1389.16,5448.31 162.53,-59.16 59.15,162.54 -162.53,59.16 z m -27.71,-12.92 73.94,203.16 203.16,-73.94 -73.94,-203.16 -203.16,73.94" /><path
         id="path44"
         style="fill:#000000;fill-opacity:1;fill-rule:nonzero;stroke:none"
         d="m 1372.1,4440.36 187.54,-68.26 68.26,187.54 -187.54,68.26 z m -31.97,-14.91 85.32,234.42 234.42,-85.32 -85.32,-234.42 -234.42,85.32" /><path
         id="path46"
         style="fill:#000000;fill-opacity:1;fill-rule:nonzero;stroke:none"
         d="m 1355.05,3432.41 212.54,-77.36 77.36,212.54 -212.54,77.36 z m -36.24,-16.9 96.7,265.68 265.68,-96.7 -96.7,-265.68 -265.68,96.7" /><path
         id="path48"
         style="fill:#000000;fill-opacity:1;fill-rule:nonzero;stroke:none"
         d="M 1338,2424.45 1575.54,2338 1662,2575.55 1424.46,2662 Z m -40.5,-18.88 108.07,296.94 296.93,-108.08 -108.07,-296.94 -296.93,108.08" /><path
         id="path50"
         style="fill:#000000;fill-opacity:1;fill-rule:nonzero;stroke:none"
         d="m 1320.94,1416.5 262.56,-95.55 95.56,262.55 -262.56,95.55 z m -44.76,-20.87 119.45,328.19 328.19,-119.45 -119.45,-328.19 -328.19,119.45" /><path
         id="path52"
         style="fill:#000000;fill-opacity:1;fill-rule:nonzero;stroke:none"
         d="m 1303.89,408.551 287.56,-104.66 104.66,287.558 -287.56,104.66 z m -49.03,-22.86 130.83,359.45 359.45,-130.828 -130.83,-359.454 -359.45,130.832" /><path
         id="path54"
         style="fill:#000000;fill-opacity:1;fill-rule:nonzero;stroke:none"
         d="m 2461.43,9482.01 56.56,-20.58 20.58,56.56 -56.56,20.58 z m -9.65,-4.49 25.73,70.69 70.71,-25.73 -25.73,-70.69 -70.71,25.73" /><path
         id="path56"
         style="fill:#000000;fill-opacity:1;fill-rule:nonzero;stroke:none"
         d="m 2446,8474.82 79.18,-28.82 28.82,79.18 -79.18,28.82 z m -13.5,-6.29 36.03,98.97 98.97,-36.03 -36.03,-98.97 -98.97,36.03" /><path
         id="path58"
         style="fill:#000000;fill-opacity:1;fill-rule:nonzero;stroke:none"
         d="m 2430.57,7467.62 101.81,-37.05 37.05,101.81 -101.81,37.05 z m -17.36,-8.09 46.32,127.26 127.26,-46.32 -46.32,-127.26 -127.26,46.32" /><path
         id="path60"
         style="fill:#000000;fill-opacity:1;fill-rule:nonzero;stroke:none"
         d="m 2415.14,6460.43 124.43,-45.29 45.29,124.43 -124.43,45.29 z m -21.21,-9.89 56.61,155.53 155.53,-56.61 -56.61,-155.53 -155.53,56.61" /><path
         id="path62"
         style="fill:#000000;fill-opacity:1;fill-rule:nonzero;stroke:none"
         d="m 2399.71,5453.23 147.06,-53.52 53.52,147.06 -147.06,53.52 z m -25.07,-11.69 66.9,183.82 183.82,-66.9 -66.9,-183.82 -183.82,66.9" /><path
         id="path64"
         style="fill:#000000;fill-opacity:1;fill-rule:nonzero;stroke:none"
         d="m 2384.28,4446.04 169.68,-61.75 61.76,169.67 -169.68,61.75 z m -28.93,-13.49 77.2,212.1 212.1,-77.2 -77.2,-212.1 -212.1,77.2" /><path
         id="path66"
         style="fill:#000000;fill-opacity:1;fill-rule:nonzero;stroke:none"
         d="m 2368.85,3438.85 192.3,-69.99 70,192.29 -192.3,69.99 z m -32.78,-15.3 87.48,240.39 240.39,-87.49 -87.49,-240.39 -240.38,87.49" /><path
         id="path68"
         style="fill:#000000;fill-opacity:1;fill-rule:nonzero;stroke:none"
         d="m 2353.42,2431.65 214.93,-78.22 78.23,214.92 -214.93,78.22 z m -36.64,-17.09 97.79,268.66 268.65,-97.78 -97.79,-268.66 -268.65,97.78" /><path
         id="path70"
         style="fill:#000000;fill-opacity:1;fill-rule:nonzero;stroke:none"
         d="M 2338,1424.45 2575.54,1338 2662,1575.55 2424.46,1662 Z m -40.5,-18.88 108.07,296.94 296.93,-108.08 -108.07,-296.94 -296.93,108.08" /><path
         id="path72"
         style="fill:#000000;fill-opacity:1;fill-rule:nonzero;stroke:none"
         d="m 2322.57,417.27 260.17,-94.7 94.69,260.16 -260.17,94.7 z m -44.36,-20.7 118.37,325.219 L 2721.79,603.43 2603.42,278.211 2278.21,396.57" /><path
         id="path74"
         style="fill:#000000;fill-opacity:1;fill-rule:nonzero;stroke:none"
         d="m 3465.49,9483.91 50.6,-18.42 18.42,50.6 -50.6,18.42 z m -8.63,-4.03 23.02,63.26 63.26,-23.02 -23.02,-63.26 -63.26,23.02" /><path
         id="path76"
         style="fill:#000000;fill-opacity:1;fill-rule:nonzero;stroke:none"
         d="m 3451.68,8477.47 70.85,-25.79 25.79,70.85 -70.85,25.79 z m -12.08,-5.63 32.24,88.56 88.56,-32.24 -32.24,-88.56 -88.56,32.24" /><path
         id="path78"
         style="fill:#000000;fill-opacity:1;fill-rule:nonzero;stroke:none"
         d="m 3437.88,7471.03 91.08,-33.15 33.16,91.09 -91.08,33.15 z m -15.54,-7.24 41.45,113.86 113.87,-41.44 -41.45,-113.86 -113.87,41.44" /><path
         id="path80"
         style="fill:#000000;fill-opacity:1;fill-rule:nonzero;stroke:none"
         d="m 3424.07,6464.59 111.34,-40.52 40.52,111.34 -111.34,40.52 z m -18.98,-8.85 50.65,139.17 139.17,-50.65 -50.65,-139.17 -139.17,50.65" /><path
         id="path82"
         style="fill:#000000;fill-opacity:1;fill-rule:nonzero;stroke:none"
         d="m 3410.26,5458.15 131.59,-47.89 47.89,131.59 -131.59,47.89 z m -22.43,-10.45 59.87,164.47 164.47,-59.87 -59.87,-164.47 -164.47,59.87" /><path
         id="path84"
         style="fill:#000000;fill-opacity:1;fill-rule:nonzero;stroke:none"
         d="m 3396.46,4451.72 151.82,-55.26 55.26,151.82 -151.82,55.26 z m -25.88,-12.07 69.07,189.77 189.77,-69.07 -69.07,-189.77 -189.77,69.07" /><path
         id="path86"
         style="fill:#000000;fill-opacity:1;fill-rule:nonzero;stroke:none"
         d="m 3382.66,3445.28 172.06,-62.62 62.62,172.06 -172.06,62.62 z m -29.34,-13.68 78.28,215.08 215.08,-78.28 -78.28,-215.08 -215.08,78.28" /><path
         id="path88"
         style="fill:#000000;fill-opacity:1;fill-rule:nonzero;stroke:none"
         d="m 3368.86,2438.85 192.29,-69.99 69.99,192.29 -192.29,69.99 z m -32.8,-15.3 87.49,240.39 240.39,-87.49 -87.49,-240.39 -240.39,87.49" /><path
         id="path90"
         style="fill:#000000;fill-opacity:1;fill-rule:nonzero;stroke:none"
         d="m 3355.05,1432.41 212.54,-77.36 77.36,212.54 -212.54,77.36 z m -36.24,-16.9 96.7,265.68 265.68,-96.7 -96.7,-265.68 -265.68,96.7" /><path
         id="path92"
         style="fill:#000000;fill-opacity:1;fill-rule:nonzero;stroke:none"
         d="m 3341.24,425.969 232.79,-84.727 84.73,232.789 -232.79,84.731 z m -39.69,-18.508 105.91,290.988 290.99,-105.91 -105.91,-290.988 -290.99,105.91" /><path
         id="path94"
         style="fill:#000000;fill-opacity:1;fill-rule:nonzero;stroke:none"
         d="m 4469.55,9485.8 44.65,-16.25 16.25,44.65 -44.65,16.25 z m -7.62,-3.55 20.32,55.82 55.82,-20.32 -20.32,-55.82 -55.82,20.32" /><path
         id="path96"
         style="fill:#000000;fill-opacity:1;fill-rule:nonzero;stroke:none"
         d="m 4457.36,8480.12 62.52,-22.75 22.76,62.51 -62.52,22.75 z m -10.65,-4.97 28.44,78.14 78.14,-28.44 -28.44,-78.14 -78.14,28.44" /><path
         id="path98"
         style="fill:#000000;fill-opacity:1;fill-rule:nonzero;stroke:none"
         d="m 4445.19,7474.44 80.37,-29.25 29.25,80.37 -80.37,29.25 z m -13.71,-6.39 36.57,100.47 100.47,-36.57 -36.57,-100.47 -100.47,36.57" /><path
         id="path100"
         style="fill:#000000;fill-opacity:1;fill-rule:nonzero;stroke:none"
         d="m 4433.01,6468.76 98.23,-35.75 35.75,98.23 -98.23,35.75 z m -16.75,-7.81 44.69,122.8 122.79,-44.7 -44.69,-122.8 -122.79,44.7" /><path
         id="path102"
         style="fill:#000000;fill-opacity:1;fill-rule:nonzero;stroke:none"
         d="m 4420.82,5463.08 116.1,-42.26 42.26,116.1 -116.1,42.26 z m -19.78,-9.23 52.81,145.11 145.11,-52.81 -52.81,-145.11 -145.11,52.81" /><path
         id="path104"
         style="fill:#000000;fill-opacity:1;fill-rule:nonzero;stroke:none"
         d="m 4408.64,4457.4 133.96,-48.76 48.76,133.96 -133.96,48.76 z m -22.84,-10.65 60.95,167.45 167.45,-60.95 -60.95,-167.45 -167.45,60.95" /><path
         id="path106"
         style="fill:#000000;fill-opacity:1;fill-rule:nonzero;stroke:none"
         d="m 4396.46,3451.72 151.82,-55.26 55.26,151.82 -151.82,55.26 z m -25.88,-12.07 69.07,189.77 189.77,-69.07 -69.07,-189.77 -189.77,69.07" /><path
         id="path108"
         style="fill:#000000;fill-opacity:1;fill-rule:nonzero;stroke:none"
         d="m 4384.29,2446.04 169.67,-61.75 61.75,169.67 -169.67,61.75 z m -28.94,-13.49 77.2,212.1 212.1,-77.2 -77.2,-212.1 -212.1,77.2" /><path
         id="path110"
         style="fill:#000000;fill-opacity:1;fill-rule:nonzero;stroke:none"
         d="m 4372.1,1440.36 187.54,-68.26 68.26,187.54 -187.54,68.26 z m -31.97,-14.91 85.32,234.42 234.42,-85.32 -85.32,-234.42 -234.42,85.32" /><path
         id="path112"
         style="fill:#000000;fill-opacity:1;fill-rule:nonzero;stroke:none"
         d="m 4359.92,434.68 205.4,-74.758 74.76,205.398 -205.4,74.762 z m -35.02,-16.328 93.45,256.75 256.75,-93.454 -93.45,-256.746 -256.75,93.45" /><path
         id="path114"
         style="fill:#000000;fill-opacity:1;fill-rule:nonzero;stroke:none"
         d="m 5473.61,9487.7 38.69,-14.09 14.09,38.69 -38.69,14.09 z m -6.6,-3.08 17.61,48.37 48.37,-17.61 -17.61,-48.37 -48.37,17.61" /><path
         id="path116"
         style="fill:#000000;fill-opacity:1;fill-rule:nonzero;stroke:none"
         d="m 5463.05,8482.77 54.18,-19.72 19.72,54.18 -54.18,19.72 z m -9.23,-4.31 24.65,67.73 67.71,-24.65 -24.65,-67.73 -67.71,24.65" /><path
         id="path118"
         style="fill:#000000;fill-opacity:1;fill-rule:nonzero;stroke:none"
         d="m 5452.5,7477.85 69.65,-25.35 25.35,69.65 -69.65,25.35 z m -11.88,-5.54 31.69,87.07 87.07,-31.69 -31.69,-87.07 -87.07,31.69" /><path
         id="path120"
         style="fill:#000000;fill-opacity:1;fill-rule:nonzero;stroke:none"
         d="m 5441.93,6472.92 85.14,-30.98 31,85.14 -85.14,30.98 z m -14.51,-6.76 38.73,106.42 106.43,-38.74 -38.73,-106.42 -106.43,38.74" /><path
         id="path122"
         style="fill:#000000;fill-opacity:1;fill-rule:nonzero;stroke:none"
         d="m 5431.39,5468 100.6,-36.62 36.62,100.62 -100.6,36.62 z m -17.16,-8 L 5460,5585.77 5585.77,5540 5540,5414.23 5414.23,5460" /><path
         id="path124"
         style="fill:#000000;fill-opacity:1;fill-rule:nonzero;stroke:none"
         d="m 5420.82,4463.08 116.1,-42.26 42.26,116.1 -116.1,42.26 z m -19.78,-9.23 52.81,145.11 145.11,-52.81 -52.81,-145.11 -145.11,52.81" /><path
         id="path126"
         style="fill:#000000;fill-opacity:1;fill-rule:nonzero;stroke:none"
         d="m 5410.27,3458.15 131.58,-47.89 47.88,131.59 -131.58,47.89 z m -22.44,-10.45 59.87,164.47 164.47,-59.87 -59.87,-164.47 -164.47,59.87" /><path
         id="path128"
         style="fill:#000000;fill-opacity:1;fill-rule:nonzero;stroke:none"
         d="m 5399.71,2453.23 147.06,-53.52 53.52,147.06 -147.06,53.52 z m -25.07,-11.69 66.9,183.82 183.82,-66.9 -66.9,-183.82 -183.82,66.9" /><path
         id="path130"
         style="fill:#000000;fill-opacity:1;fill-rule:nonzero;stroke:none"
         d="m 5389.15,1448.31 162.54,-59.16 59.16,162.54 -162.54,59.16 z m -27.7,-12.92 73.94,203.16 203.16,-73.94 -73.94,-203.16 -203.16,73.94" /><path
         id="path132"
         style="fill:#000000;fill-opacity:1;fill-rule:nonzero;stroke:none"
         d="m 5378.59,443.391 178.02,-64.801 64.8,178.019 -178.02,64.801 z m -30.34,-14.149 80.99,222.508 222.51,-80.988 -80.99,-222.512 -222.51,80.992" /><path
         id="path134"
         style="fill:#000000;fill-opacity:1;fill-rule:nonzero;stroke:none"
         d="m 6477.67,9489.59 32.74,-11.92 11.92,32.74 -32.74,11.93 z m -5.58,-2.61 14.89,40.93 40.93,-14.89 -14.89,-40.93 -40.93,14.89" /><path
         id="path136"
         style="fill:#000000;fill-opacity:1;fill-rule:nonzero;stroke:none"
         d="m 6468.74,8485.42 45.84,-16.68 16.68,45.84 -45.84,16.68 z m -7.82,-3.64 20.86,57.3 57.3,-20.86 -20.86,-57.3 -57.3,20.86" /><path
         id="path138"
         style="fill:#000000;fill-opacity:1;fill-rule:nonzero;stroke:none"
         d="m 6459.8,7481.25 58.94,-21.45 21.46,58.95 -58.94,21.45 z m -10.04,-4.68 26.81,73.67 73.67,-26.81 -26.81,-73.67 -73.67,26.81" /><path
         id="path140"
         style="fill:#000000;fill-opacity:1;fill-rule:nonzero;stroke:none"
         d="m 6450.87,6477.09 72.04,-26.22 26.22,72.04 -72.04,26.22 z m -12.28,-5.73 32.78,90.05 90.04,-32.77 -32.78,-90.05 -90.04,32.77" /><path
         id="path142"
         style="fill:#000000;fill-opacity:1;fill-rule:nonzero;stroke:none"
         d="m 6441.93,5472.93 85.14,-31 31,85.14 -85.14,31 z m -14.51,-6.78 38.73,106.43 106.43,-38.73 -38.73,-106.43 -106.43,38.73" /><path
         id="path144"
         style="fill:#000000;fill-opacity:1;fill-rule:nonzero;stroke:none"
         d="m 6433.01,4468.76 98.23,-35.75 35.75,98.23 -98.23,35.75 z m -16.75,-7.81 44.69,122.79 122.79,-44.69 -44.69,-122.79 -122.79,44.69" /><path
         id="path146"
         style="fill:#000000;fill-opacity:1;fill-rule:nonzero;stroke:none"
         d="m 6424.07,3464.59 111.34,-40.52 40.52,111.34 -111.34,40.52 z m -18.98,-8.85 50.65,139.17 139.17,-50.65 -50.65,-139.17 -139.17,50.65" /><path
         id="path148"
         style="fill:#000000;fill-opacity:1;fill-rule:nonzero;stroke:none"
         d="m 6415.14,2460.43 124.43,-45.29 45.29,124.43 -124.43,45.29 z m -21.21,-9.89 56.61,155.53 155.53,-56.61 -56.61,-155.53 -155.53,56.61" /><path
         id="path150"
         style="fill:#000000;fill-opacity:1;fill-rule:nonzero;stroke:none"
         d="m 6406.21,1456.26 137.53,-50.05 50.05,137.53 -137.53,50.05 z m -23.45,-10.93 62.57,171.91 171.91,-62.57 -62.57,-171.91 -171.91,62.57" /><path
         id="path152"
         style="fill:#000000;fill-opacity:1;fill-rule:nonzero;stroke:none"
         d="m 6397.28,452.102 150.62,-54.821 54.82,150.617 -150.62,54.821 z m -25.69,-11.973 68.54,188.281 188.28,-68.539 -68.54,-188.281 -188.28,68.539" /><path
         id="path154"
         style="fill:#000000;fill-opacity:1;fill-rule:nonzero;stroke:none"
         d="m 7481.73,9491.48 26.79,-9.75 9.75,26.79 -26.79,9.75 z m -4.57,-2.13 12.19,33.49 33.49,-12.19 -12.19,-33.49 -33.49,12.19" /><path
         id="path156"
         style="fill:#000000;fill-opacity:1;fill-rule:nonzero;stroke:none"
         d="m 7474.42,8488.07 37.5,-13.65 13.66,37.51 -37.5,13.65 z m -6.39,-2.98 17.06,46.88 46.88,-17.06 -17.06,-46.88 -46.88,17.06" /><path
         id="path158"
         style="fill:#000000;fill-opacity:1;fill-rule:nonzero;stroke:none"
         d="m 7467.11,7484.66 48.22,-17.55 17.56,48.23 -48.22,17.55 z m -8.22,-3.83 21.94,60.28 60.28,-21.94 -21.94,-60.28 -60.28,21.94" /><path
         id="path160"
         style="fill:#000000;fill-opacity:1;fill-rule:nonzero;stroke:none"
         d="m 7459.8,6481.25 58.94,-21.45 21.46,58.95 -58.94,21.45 z m -10.04,-4.68 26.81,73.67 73.67,-26.81 -26.81,-73.67 -73.67,26.81" /><path
         id="path162"
         style="fill:#000000;fill-opacity:1;fill-rule:nonzero;stroke:none"
         d="m 7452.5,5477.85 69.65,-25.35 25.35,69.65 -69.65,25.35 z m -11.88,-5.54 31.69,87.07 87.07,-31.69 -31.69,-87.07 -87.07,31.69" /><path
         id="path164"
         style="fill:#000000;fill-opacity:1;fill-rule:nonzero;stroke:none"
         d="m 7445.19,4474.44 80.37,-29.25 29.25,80.37 -80.37,29.25 z m -13.71,-6.39 36.57,100.47 100.47,-36.57 -36.57,-100.47 -100.47,36.57" /><path
         id="path166"
         style="fill:#000000;fill-opacity:1;fill-rule:nonzero;stroke:none"
         d="m 7437.88,3471.04 91.08,-33.16 33.16,91.08 -91.08,33.16 z m -15.54,-7.25 41.45,113.87 113.87,-41.45 -41.45,-113.87 -113.87,41.45" /><path
         id="path168"
         style="fill:#000000;fill-opacity:1;fill-rule:nonzero;stroke:none"
         d="m 7430.57,2467.63 101.8,-37.06 37.06,101.8 -101.8,37.06 z m -17.36,-8.1 46.32,127.26 127.26,-46.32 -46.32,-127.26 -127.26,46.32" /><path
         id="path170"
         style="fill:#000000;fill-opacity:1;fill-rule:nonzero;stroke:none"
         d="m 7423.26,1464.22 112.52,-40.96 40.96,112.52 -112.52,40.96 z m -19.19,-8.95 51.2,140.66 140.66,-51.2 -51.2,-140.66 -140.66,51.2" /><path
         id="path172"
         style="fill:#000000;fill-opacity:1;fill-rule:nonzero;stroke:none"
         d="m 7415.96,460.809 123.23,-44.848 44.85,123.23 -123.23,44.848 z m -21.02,-9.797 56.07,154.047 154.05,-56.067 -56.07,-154.051 -154.05,56.071" /><path
         id="path174"
         style="fill:#000000;fill-opacity:1;fill-rule:nonzero;stroke:none"
         d="m 8485.79,9493.38 20.84,-7.59 7.58,20.84 -20.84,7.58 z m -3.55,-1.66 9.48,26.05 26.04,-9.49 -9.48,-26.04 -26.04,9.48" /><path
         id="path176"
         style="fill:#000000;fill-opacity:1;fill-rule:nonzero;stroke:none"
         d="m 8480.11,8490.72 29.17,-10.61 10.61,29.17 -29.17,10.61 z m -4.98,-2.32 13.27,36.47 36.47,-13.27 -13.27,-36.47 -36.47,13.27" /><path
         id="path178"
         style="fill:#000000;fill-opacity:1;fill-rule:nonzero;stroke:none"
         d="m 8474.42,7488.07 37.5,-13.65 13.66,37.51 -37.5,13.65 z m -6.39,-2.98 17.06,46.88 46.88,-17.06 -17.06,-46.88 -46.88,17.06" /><path
         id="path180"
         style="fill:#000000;fill-opacity:1;fill-rule:nonzero;stroke:none"
         d="m 8468.74,6485.42 45.84,-16.68 16.68,45.84 -45.84,16.68 z m -7.82,-3.64 20.86,57.3 57.3,-20.86 -20.86,-57.3 -57.3,20.86" /><path
         id="path182"
         style="fill:#000000;fill-opacity:1;fill-rule:nonzero;stroke:none"
         d="m 8463.05,5482.77 54.18,-19.72 19.72,54.18 -54.18,19.72 z m -9.23,-4.3 24.65,67.71 67.71,-24.65 -24.65,-67.71 -67.71,24.65" /><path
         id="path184"
         style="fill:#000000;fill-opacity:1;fill-rule:nonzero;stroke:none"
         d="m 8457.36,4480.12 62.52,-22.76 22.76,62.52 -62.52,22.76 z m -10.65,-4.97 28.44,78.14 78.14,-28.44 -28.44,-78.14 -78.14,28.44" /><path
         id="path186"
         style="fill:#000000;fill-opacity:1;fill-rule:nonzero;stroke:none"
         d="m 8451.68,3477.47 70.85,-25.79 25.79,70.85 -70.85,25.79 z m -12.08,-5.63 32.24,88.56 88.56,-32.24 -32.24,-88.56 -88.56,32.24" /><path
         id="path188"
         style="fill:#000000;fill-opacity:1;fill-rule:nonzero;stroke:none"
         d="m 8446,2474.81 79.19,-28.81 28.81,79.19 -79.19,28.81 z m -13.5,-6.28 36.03,98.97 98.97,-36.03 -36.03,-98.97 -98.97,36.03" /><path
         id="path190"
         style="fill:#000000;fill-opacity:1;fill-rule:nonzero;stroke:none"
         d="m 8440.31,1472.17 87.52,-31.86 31.86,87.52 -87.52,31.86 z m -14.92,-6.96 39.82,109.4 109.4,-39.82 -39.82,-109.4 -109.4,39.82" /><path
         id="path192"
         style="fill:#000000;fill-opacity:1;fill-rule:nonzero;stroke:none"
         d="m 8434.63,469.52 95.85,-34.891 34.89,95.851 -95.85,34.891 z m -16.34,-7.629 43.6,119.82 119.82,-43.602 -43.6,-119.82 -119.82,43.602" /><path
         id="path194"
         style="fill:#000000;fill-opacity:1;fill-rule:nonzero;stroke:none"
         d="m 9489.85,9495.27 14.89,-5.42 5.41,14.88 -14.89,5.42 z m -2.54,-1.19 6.77,18.61 18.61,-6.77 -6.77,-18.61 -18.61,6.77" /><path
         id="path196"
         style="fill:#000000;fill-opacity:1;fill-rule:nonzero;stroke:none"
         d="m 9485.79,8493.37 20.84,-7.58 7.58,20.84 -20.84,7.58 z m -3.55,-1.65 9.48,26.04 26.04,-9.48 -9.48,-26.04 -26.04,9.48" /><path
         id="path198"
         style="fill:#000000;fill-opacity:1;fill-rule:nonzero;stroke:none"
         d="m 9481.73,7491.48 26.79,-9.75 9.75,26.79 -26.79,9.75 z m -4.57,-2.13 12.19,33.49 33.49,-12.19 -12.19,-33.49 -33.49,12.19" /><path
         id="path200"
         style="fill:#000000;fill-opacity:1;fill-rule:nonzero;stroke:none"
         d="m 9477.67,6489.58 32.74,-11.91 11.92,32.75 -32.74,11.91 z m -5.58,-2.6 14.89,40.94 40.93,-14.9 -14.89,-40.94 -40.93,14.9" /><path
         id="path202"
         style="fill:#000000;fill-opacity:1;fill-rule:nonzero;stroke:none"
         d="m 9473.61,5487.7 38.69,-14.09 14.09,38.69 -38.69,14.09 z m -6.6,-3.08 17.61,48.37 48.37,-17.61 -17.61,-48.37 -48.37,17.61" /><path
         id="path204"
         style="fill:#000000;fill-opacity:1;fill-rule:nonzero;stroke:none"
         d="m 9469.55,4485.8 44.65,-16.25 16.25,44.65 -44.65,16.25 z m -7.62,-3.55 20.32,55.82 55.82,-20.32 -20.32,-55.82 -55.82,20.32" /><path
         id="path206"
         style="fill:#000000;fill-opacity:1;fill-rule:nonzero;stroke:none"
         d="m 9465.49,3483.91 50.6,-18.42 18.42,50.6 -50.6,18.42 z m -8.63,-4.03 23.02,63.26 63.26,-23.02 -23.02,-63.26 -63.26,23.02" /><path
         id="path208"
         style="fill:#000000;fill-opacity:1;fill-rule:nonzero;stroke:none"
         d="m 9461.43,2482.01 56.56,-20.58 20.58,56.56 -56.56,20.58 z m -9.64,-4.49 25.73,70.69 70.69,-25.73 -25.73,-70.69 -70.69,25.73" /><path
         id="path210"
         style="fill:#000000;fill-opacity:1;fill-rule:nonzero;stroke:none"
         d="m 9457.36,1480.12 62.52,-22.76 22.76,62.52 -62.52,22.76 z m -10.65,-4.97 28.44,78.14 78.14,-28.44 -28.44,-78.14 -78.14,28.44" /><path
         id="path212"
         style="fill:#000000;fill-opacity:1;fill-rule:nonzero;stroke:none"
         d="m 9453.31,478.223 68.47,-24.914 24.91,68.472 -68.47,24.91 z m -11.68,-5.442 31.15,85.59 85.59,-31.152 -31.15,-85.59 -85.59,31.152" /><path
         id="path214"
         style="fill:#000000;fill-opacity:1;fill-rule:nonzero;stroke:none"
         d="m -38.9805,9981.83 57.1524,-20.81 20.8086,57.18 -57.1524,20.8 z m -9.7383,-4.55 26,71.42 71.4376,-26 -26,-71.42 -71.4376,26" /><path
         id="path216"
         style="fill:#000000;fill-opacity:1;fill-rule:nonzero;stroke:none"
         d="m -58.4688,8972.73 85.7344,-31.2 31.2032,85.74 -85.7344,31.2 z m -14.6171,-6.81 39.0039,107.17 107.1679,-39.01 -39.0039,-107.17 -107.1679,39.01" /><path
         id="path218"
         style="fill:#000000;fill-opacity:1;fill-rule:nonzero;stroke:none"
         d="m -77.9609,7963.65 114.3125,-41.61 41.6093,114.31 -114.3125,41.61 z m -19.4844,-9.09 52.0039,142.89 142.8867,-52.01 -52.0039,-142.89 -142.8867,52.01" /><path
         id="path220"
         style="fill:#000000;fill-opacity:1;fill-rule:nonzero;stroke:none"
         d="m -97.4453,6954.56 142.8867,-52.01 52.0039,142.89 -142.8867,52.01 z m -24.3637,-11.36 65.0082,178.61 178.6098,-65.01 -65.0082,-178.61 -178.6098,65.01" /><path
         id="path222"
         style="fill:#000000;fill-opacity:1;fill-rule:nonzero;stroke:none"
         d="m -116.934,5945.47 171.4613,-62.4 62.4067,171.46 -171.4613,62.4 z m -29.234,-13.63 78.0078,214.33 214.3282,-78.01 -78.0078,-214.33 -214.3282,78.01" /><path
         id="path224"
         style="fill:#000000;fill-opacity:1;fill-rule:nonzero;stroke:none"
         d="m -136.426,4936.39 200.0432,-72.82 72.8088,200.04 -200.0432,72.82 z m -34.105,-15.91 91.0076,250.05 250.0544,-91.01 -91.0076,-250.05 -250.0544,91.01" /><path
         id="path226"
         style="fill:#000000;fill-opacity:1;fill-rule:nonzero;stroke:none"
         d="m -155.914,3927.29 228.621,-83.21 83.207,228.63 -228.621,83.21 z m -38.981,-18.17 104.0161,285.77 L 194.895,4090.88 90.8789,3805.11 -194.895,3909.12" /><path
         id="path228"
         style="fill:#000000;fill-opacity:1;fill-rule:nonzero;stroke:none"
         d="m -175.406,2918.21 257.199,-93.61 93.613,257.19 -257.199,93.61 z m -43.848,-20.45 117.012,321.5 321.496,-117.02 -117.012,-321.5 -321.496,117.02" /><path
         id="path230"
         style="fill:#000000;fill-opacity:1;fill-rule:nonzero;stroke:none"
         d="M -194.895,1909.12 90.8789,1805.11 194.895,2090.88 -90.8789,2194.89 Z m -48.718,-22.72 130.015,357.21 357.211,-130.01 -130.015,-357.21 -357.211,130.01" /><path
         id="path232"
         style="fill:#000000;fill-opacity:1;fill-rule:nonzero;stroke:none"
         d="M -214.379,900.031 99.9648,785.621 214.379,1099.97 -99.9648,1214.38 Z M -267.98,875.039 -124.961,1267.98 267.98,1124.96 124.961,732.02 -267.98,875.039" /><path
         id="path234"
         style="fill:#000000;fill-opacity:1;fill-rule:nonzero;stroke:none"
         d="m -233.871,-109.098 342.93,-124.8 124.812,342.949 -342.93,124.82 z m -58.469,-27.203 156.024,428.633 428.656,-156.012 -156.024,-428.621 -428.656,156" /><path
         id="path236"
         style="fill:#000000;fill-opacity:1;fill-rule:nonzero;stroke:none"
         d="m 964.27,9983.34 52.39,-19.07 19.07,52.43 -52.39,19 z m -8.934,-4.16 23.84,65.52 65.484,-23.9 -23.83,-65.46 -65.494,23.84" /><path
         id="path238"
         style="fill:#000000;fill-opacity:1;fill-rule:nonzero;stroke:none"
         d="m 946.406,8975.01 78.584,-28.6 28.6,78.58 -78.578,28.6 z m -13.398,-6.25 35.754,98.23 98.228,-35.75 -35.75,-98.23 -98.232,35.75" /><path
         id="path240"
         style="fill:#000000;fill-opacity:1;fill-rule:nonzero;stroke:none"
         d="m 928.539,7966.68 104.781,-38.14 38.14,104.78 -104.78,38.14 z m -17.863,-8.34 47.668,130.99 130.986,-47.67 -47.67,-130.99 -130.984,47.67" /><path
         id="path242"
         style="fill:#000000;fill-opacity:1;fill-rule:nonzero;stroke:none"
         d="m 910.676,6958.34 130.984,-47.67 47.67,130.99 -130.986,47.67 z m -22.332,-10.41 59.59,163.73 163.726,-59.59 -59.59,-163.73 -163.726,59.59" /><path
         id="path244"
         style="fill:#000000;fill-opacity:1;fill-rule:nonzero;stroke:none"
         d="m 892.809,5950.02 157.181,-57.21 57.2,157.18 -157.174,57.2 z m -26.797,-12.5 71.508,196.47 196.47,-71.51 -71.51,-196.46 -196.468,71.5" /><path
         id="path246"
         style="fill:#000000;fill-opacity:1;fill-rule:nonzero;stroke:none"
         d="m 874.945,4941.69 183.375,-66.75 66.73,183.37 -183.366,66.75 z m -31.261,-14.58 83.421,229.21 229.215,-83.43 -83.42,-229.21 -229.216,83.43" /><path
         id="path248"
         style="fill:#000000;fill-opacity:1;fill-rule:nonzero;stroke:none"
         d="m 857.078,3933.36 209.572,-76.28 76.27,209.56 -209.565,76.28 z m -35.73,-16.67 95.347,261.96 261.955,-95.34 -95.34,-261.96 -261.962,95.34" /><path
         id="path250"
         style="fill:#000000;fill-opacity:1;fill-rule:nonzero;stroke:none"
         d="m 839.215,2925.02 235.765,-85.81 85.81,235.77 -235.767,85.81 z m -40.195,-18.74 107.257,294.71 294.703,-107.27 -107.26,-294.71 -294.7,107.27" /><path
         id="path252"
         style="fill:#000000;fill-opacity:1;fill-rule:nonzero;stroke:none"
         d="m 821.348,1916.69 261.962,-95.34 95.34,261.96 -261.955,95.34 z m -44.664,-20.82 119.183,327.44 327.453,-119.18 -119.19,-327.44 -327.446,119.18" /><path
         id="path254"
         style="fill:#000000;fill-opacity:1;fill-rule:nonzero;stroke:none"
         d="m 803.48,908.359 288.16,-104.867 104.88,288.148 -288.157,104.87 z m -49.125,-22.91 131.098,360.191 360.187,-131.09 -131.09,-360.191 -360.195,131.09" /><path
         id="path256"
         style="fill:#000000;fill-opacity:1;fill-rule:nonzero;stroke:none"
         d="M 785.621,-100 1099.97,-214.398 1214.38,99.9688 900.035,214.379 Z M 732.02,-125 875.039,267.98 1267.98,124.961 1124.96,-268 732.02,-125" /><path
         id="path258"
         style="fill:#000000;fill-opacity:1;fill-rule:nonzero;stroke:none"
         d="m 1967.52,9984.86 47.63,-17.34 17.33,47.58 -47.63,17.4 z m -8.12,-3.79 21.66,59.53 59.54,-21.7 -21.66,-59.5 -59.54,21.67" /><path
         id="path260"
         style="fill:#000000;fill-opacity:1;fill-rule:nonzero;stroke:none"
         d="m 1951.28,8977.28 71.44,-26 26,71.44 -71.44,26 z m -12.18,-5.68 32.5,89.3 89.3,-32.5 -32.5,-89.3 -89.3,32.5" /><path
         id="path262"
         style="fill:#000000;fill-opacity:1;fill-rule:nonzero;stroke:none"
         d="m 1935.03,7969.71 95.26,-34.68 34.68,95.26 -95.26,34.68 z m -16.24,-7.58 43.34,119.08 119.08,-43.34 -43.34,-119.08 -119.08,43.34" /><path
         id="path264"
         style="fill:#000000;fill-opacity:1;fill-rule:nonzero;stroke:none"
         d="m 1918.79,6962.13 119.08,-43.34 43.34,119.08 -119.08,43.34 z m -20.3,-9.46 54.18,148.83 148.84,-54.17 -54.18,-148.83 -148.84,54.17" /><path
         id="path266"
         style="fill:#000000;fill-opacity:1;fill-rule:nonzero;stroke:none"
         d="m 1902.55,5954.56 142.89,-52 52.01,142.88 -142.89,52.01 z m -24.36,-11.36 65.01,178.61 178.61,-65.01 -65.01,-178.61 -178.61,65.01" /><path
         id="path268"
         style="fill:#000000;fill-opacity:1;fill-rule:nonzero;stroke:none"
         d="m 1886.31,4946.98 166.7,-60.67 60.68,166.71 -166.7,60.67 z m -28.42,-13.25 75.85,208.38 208.37,-75.84 -75.85,-208.38 -208.37,75.84" /><path
         id="path270"
         style="fill:#000000;fill-opacity:1;fill-rule:nonzero;stroke:none"
         d="m 1870.07,3939.41 190.52,-69.34 69.34,190.52 -190.52,69.34 z m -32.48,-15.14 86.68,238.14 238.14,-86.68 -86.68,-238.14 -238.14,86.68" /><path
         id="path272"
         style="fill:#000000;fill-opacity:1;fill-rule:nonzero;stroke:none"
         d="m 1853.83,2931.84 214.33,-78.01 78.01,214.33 -214.33,78.01 z m -36.54,-17.04 97.51,267.91 267.91,-97.51 -97.51,-267.91 -267.91,97.51" /><path
         id="path274"
         style="fill:#000000;fill-opacity:1;fill-rule:nonzero;stroke:none"
         d="m 1837.59,1924.27 238.14,-86.68 86.68,238.14 -238.14,86.68 z m -40.6,-18.94 108.34,297.69 297.68,-108.35 -108.34,-297.69 -297.68,108.35" /><path
         id="path276"
         style="fill:#000000;fill-opacity:1;fill-rule:nonzero;stroke:none"
         d="m 1821.35,916.691 261.96,-95.339 95.34,261.958 -261.96,95.34 z m -44.67,-20.82 119.19,327.439 327.45,-119.18 -119.19,-327.439 -327.45,119.18" /><path
         id="path278"
         style="fill:#000000;fill-opacity:1;fill-rule:nonzero;stroke:none"
         d="M 1805.11,-90.8984 2090.88,-194.898 2194.89,90.8789 1909.12,194.891 Z m -48.72,-22.6996 130.01,357.207 357.21,-130.007 -130.01,-357.2 -357.21,130" /><path
         id="path280"
         style="fill:#000000;fill-opacity:1;fill-rule:nonzero;stroke:none"
         d="m 2970.77,9986.37 42.86,-15.6 15.6,42.83 -42.86,15.6 z m -7.31,-3.41 19.5,53.54 53.58,-19.5 -19.5,-53.54 -53.58,19.5" /><path
         id="path282"
         style="fill:#000000;fill-opacity:1;fill-rule:nonzero;stroke:none"
         d="m 2956.15,8979.55 64.3,-23.4 23.4,64.3 -64.3,23.41 z m -10.96,-5.11 29.25,80.38 80.37,-29.26 -29.25,-80.37 -80.37,29.25" /><path
         id="path284"
         style="fill:#000000;fill-opacity:1;fill-rule:nonzero;stroke:none"
         d="m 2941.53,7972.73 85.74,-31.2 31.2,85.74 -85.74,31.2 z m -14.62,-6.81 39.01,107.17 107.17,-39.01 -39.01,-107.17 -107.17,39.01" /><path
         id="path286"
         style="fill:#000000;fill-opacity:1;fill-rule:nonzero;stroke:none"
         d="m 2926.91,6965.92 107.17,-39.01 39.01,107.17 -107.17,39.01 z m -18.27,-8.52 48.76,133.96 133.96,-48.76 -48.76,-133.96 -133.96,48.76" /><path
         id="path288"
         style="fill:#000000;fill-opacity:1;fill-rule:nonzero;stroke:none"
         d="m 2912.3,5959.1 128.6,-46.81 46.81,128.61 -128.61,46.8 z m -21.93,-10.22 58.51,160.75 160.75,-58.51 -58.51,-160.75 -160.75,58.51" /><path
         id="path290"
         style="fill:#000000;fill-opacity:1;fill-rule:nonzero;stroke:none"
         d="m 2897.68,4952.29 150.03,-54.6 54.6,150.02 -150.02,54.6 z m -25.58,-11.93 68.26,187.54 187.54,-68.26 -68.26,-187.54 -187.54,68.26" /><path
         id="path292"
         style="fill:#000000;fill-opacity:1;fill-rule:nonzero;stroke:none"
         d="m 2883.07,3945.47 171.46,-62.4 62.4,171.46 -171.46,62.4 z m -29.24,-13.63 78.01,214.33 214.33,-78.01 -78.01,-214.33 -214.33,78.01" /><path
         id="path294"
         style="fill:#000000;fill-opacity:1;fill-rule:nonzero;stroke:none"
         d="m 2868.45,2938.65 192.9,-70.2 70.2,192.9 -192.89,70.2 z m -32.89,-15.33 87.76,241.12 241.12,-87.76 -87.76,-241.12 -241.12,87.76" /><path
         id="path296"
         style="fill:#000000;fill-opacity:1;fill-rule:nonzero;stroke:none"
         d="m 2853.83,1931.84 214.33,-78.01 78.01,214.33 -214.33,78.01 z m -36.54,-17.04 97.51,267.91 267.91,-97.51 -97.51,-267.91 -267.91,97.51" /><path
         id="path298"
         style="fill:#000000;fill-opacity:1;fill-rule:nonzero;stroke:none"
         d="m 2839.21,925.02 235.77,-85.809 85.8,235.769 -235.76,85.81 z m -40.19,-18.739 107.26,294.709 294.71,-107.27 -107.27,-294.708 -294.7,107.269" /><path
         id="path300"
         style="fill:#000000;fill-opacity:1;fill-rule:nonzero;stroke:none"
         d="m 2824.59,-81.8008 257.21,-93.5972 93.6,257.1871 -257.19,93.6089 z m -43.84,-20.3982 117.01,321.461 321.5,-117.02 -117.02,-321.543 -321.49,117.102" /><path
         id="path302"
         style="fill:#000000;fill-opacity:1;fill-rule:nonzero;stroke:none"
         d="m 3974.01,9987.88 38.11,-13.86 13.87,38.08 -38.11,13.9 z m -6.49,-3.02 17.33,47.64 47.63,-17.4 -17.33,-47.58 -47.63,17.34" /><path
         id="path304"
         style="fill:#000000;fill-opacity:1;fill-rule:nonzero;stroke:none"
         d="m 3961.03,8981.83 57.14,-20.81 20.8,57.16 -57.14,20.8 z m -9.75,-4.55 26,71.44 71.44,-26 -26,-71.44 -71.44,26" /><path
         id="path306"
         style="fill:#000000;fill-opacity:1;fill-rule:nonzero;stroke:none"
         d="m 3948.03,7975.77 76.21,-27.74 27.73,76.2 -76.21,27.74 z m -12.99,-6.06 34.67,95.26 95.25,-34.68 -34.67,-95.26 -95.25,34.68" /><path
         id="path308"
         style="fill:#000000;fill-opacity:1;fill-rule:nonzero;stroke:none"
         d="m 3935.04,6969.71 95.25,-34.68 34.67,95.26 -95.25,34.68 z m -16.24,-7.58 43.33,119.08 119.07,-43.34 -43.33,-119.08 -119.07,43.34" /><path
         id="path310"
         style="fill:#000000;fill-opacity:1;fill-rule:nonzero;stroke:none"
         d="m 3922.04,5963.65 114.31,-41.61 41.61,114.31 -114.31,41.61 z m -19.48,-9.09 52,142.89 142.88,-52.01 -52,-142.88 -142.88,52" /><path
         id="path312"
         style="fill:#000000;fill-opacity:1;fill-rule:nonzero;stroke:none"
         d="m 3909.05,4957.59 133.36,-48.54 48.54,133.36 -133.36,48.54 z m -22.74,-10.61 60.67,166.71 166.71,-60.67 -60.67,-166.71 -166.71,60.67" /><path
         id="path314"
         style="fill:#000000;fill-opacity:1;fill-rule:nonzero;stroke:none"
         d="m 3896.05,3951.53 152.42,-55.48 55.48,152.42 -152.42,55.48 z m -25.98,-12.12 69.34,190.52 190.52,-69.34 -69.34,-190.52 -190.52,69.34" /><path
         id="path316"
         style="fill:#000000;fill-opacity:1;fill-rule:nonzero;stroke:none"
         d="m 3883.07,2945.47 171.46,-62.4 62.4,171.46 -171.46,62.4 z m -29.24,-13.63 78.01,214.33 214.33,-78.01 -78.01,-214.33 -214.33,78.01" /><path
         id="path318"
         style="fill:#000000;fill-opacity:1;fill-rule:nonzero;stroke:none"
         d="m 3870.07,1939.41 190.52,-69.34 69.34,190.52 -190.52,69.34 z m -32.48,-15.14 86.68,238.14 238.14,-86.68 -86.68,-238.14 -238.14,86.68" /><path
         id="path320"
         style="fill:#000000;fill-opacity:1;fill-rule:nonzero;stroke:none"
         d="m 3857.08,933.359 209.56,-76.277 76.28,209.558 -209.56,76.28 z m -35.73,-16.668 95.34,261.959 261.96,-95.34 -95.34,-261.958 -261.96,95.339" /><path
         id="path322"
         style="fill:#000000;fill-opacity:1;fill-rule:nonzero;stroke:none"
         d="m 3844.08,-72.6992 228.63,-83.1988 83.21,228.6089 -228.63,83.2111 z M 3805.11,-90.8984 3909.12,194.891 4194.89,90.8789 4090.88,-194.898 3805.11,-90.8984" /><path
         id="path324"
         style="fill:#000000;fill-opacity:1;fill-rule:nonzero;stroke:none"
         d="m 4977.27,9989.4 33.34,-12.14 12.12,33.34 -33.34,12.1 z m -5.69,-2.65 15.17,41.65 41.67,-15.1 -15.17,-41.72 -41.67,15.17" /><path
         id="path326"
         style="fill:#000000;fill-opacity:1;fill-rule:nonzero;stroke:none"
         d="m 4965.9,8984.1 50.01,-18.21 18.19,50.01 -50.01,18.21 z m -8.54,-3.98 22.76,62.51 62.52,-22.75 -22.76,-62.51 -62.52,22.75" /><path
         id="path328"
         style="fill:#000000;fill-opacity:1;fill-rule:nonzero;stroke:none"
         d="m 4954.52,7978.79 66.68,-24.26 24.28,66.68 -66.68,24.26 z m -11.37,-5.29 30.35,83.35 83.35,-30.35 -30.35,-83.35 -83.35,30.35" /><path
         id="path330"
         style="fill:#000000;fill-opacity:1;fill-rule:nonzero;stroke:none"
         d="m 4943.15,6973.49 83.35,-30.34 30.35,83.36 -83.35,30.34 z m -14.2,-6.62 37.92,104.18 104.18,-37.92 -37.92,-104.18 -104.18,37.92" /><path
         id="path332"
         style="fill:#000000;fill-opacity:1;fill-rule:nonzero;stroke:none"
         d="m 4931.79,5968.19 100.02,-36.4 36.4,100.02 -100.02,36.4 z m -17.05,-7.95 45.5,125.02 125.02,-45.5 -45.5,-125.02 -125.02,45.5" /><path
         id="path334"
         style="fill:#000000;fill-opacity:1;fill-rule:nonzero;stroke:none"
         d="m 4920.42,4962.89 116.69,-42.47 42.47,116.69 -116.69,42.47 z m -19.89,-9.28 53.08,145.86 145.86,-53.08 -53.08,-145.86 -145.86,53.08" /><path
         id="path336"
         style="fill:#000000;fill-opacity:1;fill-rule:nonzero;stroke:none"
         d="m 4909.05,3957.59 133.36,-48.54 48.54,133.36 -133.36,48.54 z m -22.74,-10.61 60.67,166.71 166.71,-60.67 -60.67,-166.71 -166.71,60.67" /><path
         id="path338"
         style="fill:#000000;fill-opacity:1;fill-rule:nonzero;stroke:none"
         d="m 4897.69,2952.29 150.02,-54.6 54.6,150.02 -150.02,54.6 z m -25.59,-11.93 68.26,187.54 187.54,-68.26 -68.26,-187.54 -187.54,68.26" /><path
         id="path340"
         style="fill:#000000;fill-opacity:1;fill-rule:nonzero;stroke:none"
         d="m 4886.31,1946.98 166.71,-60.67 60.67,166.71 -166.71,60.67 z m -28.42,-13.25 75.84,208.38 208.38,-75.84 -75.84,-208.38 -208.38,75.84" /><path
         id="path342"
         style="fill:#000000;fill-opacity:1;fill-rule:nonzero;stroke:none"
         d="m 4874.94,941.691 183.37,-66.75 66.75,183.369 -183.37,66.75 z m -31.26,-14.582 83.43,229.211 229.21,-83.43 -83.43,-229.21 -229.21,83.429" /><path
         id="path344"
         style="fill:#000000;fill-opacity:1;fill-rule:nonzero;stroke:none"
         d="m 4863.57,-63.5977 200.04,-72.8003 72.82,200.0074 -200.04,72.8206 z m -34.1,-15.9023 91.01,250.031 250.05,-91.0115 -91.01,-250.0195 -250.05,91" /><path
         id="path346"
         style="fill:#000000;fill-opacity:1;fill-rule:nonzero;stroke:none"
         d="m 5980.51,9990.91 28.58,-10.4 10.4,28.59 -28.58,10.4 z m -4.88,-2.27 13.01,35.76 35.73,-13 -13.01,-35.76 -35.73,13" /><path
         id="path348"
         style="fill:#000000;fill-opacity:1;fill-rule:nonzero;stroke:none"
         d="m 5970.76,8986.37 42.87,-15.6 15.61,42.86 -42.87,15.6 z m -7.3,-3.41 19.5,53.58 53.58,-19.5 -19.5,-53.58 -53.58,19.5" /><path
         id="path350"
         style="fill:#000000;fill-opacity:1;fill-rule:nonzero;stroke:none"
         d="m 5961.03,7981.83 57.14,-20.81 20.8,57.15 -57.14,20.81 z m -9.75,-4.55 26.01,71.44 71.43,-26 -26.01,-71.44 -71.43,26" /><path
         id="path352"
         style="fill:#000000;fill-opacity:1;fill-rule:nonzero;stroke:none"
         d="m 5951.28,6977.28 71.43,-26 26.01,71.44 -71.43,26 z m -12.19,-5.68 32.51,89.3 89.31,-32.5 -32.51,-89.3 -89.31,32.5" /><path
         id="path354"
         style="fill:#000000;fill-opacity:1;fill-rule:nonzero;stroke:none"
         d="m 5941.53,5972.73 85.74,-31.2 31.2,85.74 -85.74,31.2 z m -14.62,-6.81 39.01,107.17 107.17,-39.01 -39.01,-107.17 -107.17,39.01" /><path
         id="path356"
         style="fill:#000000;fill-opacity:1;fill-rule:nonzero;stroke:none"
         d="m 5931.79,4968.19 100.02,-36.4 36.4,100.02 -100.02,36.4 z m -17.05,-7.95 45.5,125.02 125.02,-45.5 -45.5,-125.02 -125.02,45.5" /><path
         id="path358"
         style="fill:#000000;fill-opacity:1;fill-rule:nonzero;stroke:none"
         d="m 5922.04,3963.65 114.31,-41.61 41.61,114.31 -114.31,41.61 z m -19.48,-9.09 52,142.88 142.88,-52 -52,-142.88 -142.88,52" /><path
         id="path360"
         style="fill:#000000;fill-opacity:1;fill-rule:nonzero;stroke:none"
         d="m 5912.29,2959.1 128.61,-46.81 46.81,128.61 -128.61,46.81 z m -21.92,-10.22 58.51,160.75 160.75,-58.51 -58.51,-160.75 -160.75,58.51" /><path
         id="path362"
         style="fill:#000000;fill-opacity:1;fill-rule:nonzero;stroke:none"
         d="m 5902.56,1954.56 142.88,-52 52,142.88 -142.88,52 z m -24.37,-11.36 65.01,178.61 178.61,-65.01 -65.01,-178.61 -178.61,65.01" /><path
         id="path364"
         style="fill:#000000;fill-opacity:1;fill-rule:nonzero;stroke:none"
         d="m 5892.81,950.02 157.17,-57.207 57.21,157.167 -157.17,57.21 z m -26.79,-12.5 71.5,196.46 196.46,-71.5 -71.5,-196.46 -196.46,71.5" /><path
         id="path366"
         style="fill:#000000;fill-opacity:1;fill-rule:nonzero;stroke:none"
         d="m 5883.07,-54.5 171.46,-62.398 62.4,171.4293 -171.46,62.3987 z m -29.24,-13.6992 78.01,214.3712 214.33,-78.0118 -78.01,-214.3592 -214.33,77.9998" /><path
         id="path368"
         style="fill:#000000;fill-opacity:1;fill-rule:nonzero;stroke:none"
         d="m 6983.76,9992.43 23.82,-8.67 8.66,23.84 -23.82,8.6 z m -4.06,-1.9 10.84,29.77 29.76,-10.8 -10.84,-29.8 -29.76,10.83" /><path
         id="path370"
         style="fill:#000000;fill-opacity:1;fill-rule:nonzero;stroke:none"
         d="m 6975.63,8988.64 35.73,-13 13.01,35.72 -35.73,13 z m -6.08,-2.84 16.25,44.65 44.65,-16.25 -16.25,-44.65 -44.65,16.25" /><path
         id="path372"
         style="fill:#000000;fill-opacity:1;fill-rule:nonzero;stroke:none"
         d="m 6967.52,7984.85 47.63,-17.33 17.33,47.63 -47.63,17.33 z m -8.13,-3.79 21.67,59.54 59.55,-21.66 -21.67,-59.54 -59.55,21.66" /><path
         id="path374"
         style="fill:#000000;fill-opacity:1;fill-rule:nonzero;stroke:none"
         d="m 6959.39,6981.06 59.55,-21.66 21.67,59.54 -59.55,21.66 z m -10.14,-4.73 27.09,74.42 74.41,-27.08 -27.09,-74.42 -74.41,27.08" /><path
         id="path376"
         style="fill:#000000;fill-opacity:1;fill-rule:nonzero;stroke:none"
         d="m 6951.28,5977.28 71.43,-26 26.01,71.44 -71.43,26 z m -12.19,-5.68 32.51,89.3 89.31,-32.5 -32.51,-89.31 -89.31,32.51" /><path
         id="path378"
         style="fill:#000000;fill-opacity:1;fill-rule:nonzero;stroke:none"
         d="m 6943.15,4973.5 83.35,-30.35 30.35,83.35 -83.35,30.35 z m -14.2,-6.63 37.92,104.18 104.18,-37.92 -37.92,-104.18 -104.18,37.92" /><path
         id="path380"
         style="fill:#000000;fill-opacity:1;fill-rule:nonzero;stroke:none"
         d="m 6935.04,3969.71 95.25,-34.67 34.67,95.25 -95.25,34.67 z m -16.24,-7.58 43.33,119.07 119.07,-43.33 -43.33,-119.07 -119.07,43.33" /><path
         id="path382"
         style="fill:#000000;fill-opacity:1;fill-rule:nonzero;stroke:none"
         d="m 6926.91,2965.92 107.17,-39.01 39.01,107.17 -107.17,39.01 z m -18.27,-8.52 48.76,133.96 133.96,-48.76 -48.76,-133.96 -133.96,48.76" /><path
         id="path384"
         style="fill:#000000;fill-opacity:1;fill-rule:nonzero;stroke:none"
         d="m 6918.8,1962.13 119.07,-43.33 43.33,119.07 -119.07,43.33 z m -20.3,-9.46 54.17,148.83 148.83,-54.17 -54.17,-148.83 -148.83,54.17" /><path
         id="path386"
         style="fill:#000000;fill-opacity:1;fill-rule:nonzero;stroke:none"
         d="m 6910.67,958.352 130.98,-47.68 47.68,130.978 -130.98,47.68 z m -22.33,-10.422 59.59,163.73 163.73,-59.59 -59.59,-163.73 -163.73,59.59" /><path
         id="path388"
         style="fill:#000000;fill-opacity:1;fill-rule:nonzero;stroke:none"
         d="m 6902.56,-45.3984 142.88,-52 52,142.8398 -142.88,52 z m -24.37,-11.4024 65.01,178.6138 178.61,-65.0122 -65.01,-178.6018 -178.61,65.0002" /><path
         id="path390"
         style="fill:#000000;fill-opacity:1;fill-rule:nonzero;stroke:none"
         d="m 7987.01,9993.94 19.04,-6.93 6.94,19.09 -19.04,6.9 z m -3.25,-1.51 8.66,23.77 23.82,-8.6 -8.66,-23.84 -23.82,8.67" /><path
         id="path392"
         style="fill:#000000;fill-opacity:1;fill-rule:nonzero;stroke:none"
         d="m 7980.51,8990.91 28.58,-10.4 10.4,28.58 -28.58,10.4 z m -4.88,-2.27 13.01,35.72 35.73,-13 -13.01,-35.72 -35.73,13" /><path
         id="path394"
         style="fill:#000000;fill-opacity:1;fill-rule:nonzero;stroke:none"
         d="m 7974.01,7987.88 38.11,-13.87 13.87,38.11 -38.11,13.87 z m -6.49,-3.03 17.33,47.63 47.63,-17.33 -17.33,-47.63 -47.63,17.33" /><path
         id="path396"
         style="fill:#000000;fill-opacity:1;fill-rule:nonzero;stroke:none"
         d="m 7967.52,6984.85 47.63,-17.33 17.33,47.63 -47.63,17.33 z m -8.13,-3.79 21.67,59.54 59.55,-21.66 -21.67,-59.54 -59.55,21.66" /><path
         id="path398"
         style="fill:#000000;fill-opacity:1;fill-rule:nonzero;stroke:none"
         d="m 7961.03,5981.83 57.14,-20.8 20.8,57.14 -57.14,20.8 z m -9.75,-4.55 26.01,71.44 71.43,-26 -26.01,-71.44 -71.43,26" /><path
         id="path400"
         style="fill:#000000;fill-opacity:1;fill-rule:nonzero;stroke:none"
         d="m 7954.52,4978.8 66.68,-24.28 24.28,66.68 -66.68,24.28 z m -11.37,-5.3 30.35,83.35 83.35,-30.35 -30.35,-83.35 -83.35,30.35" /><path
         id="path402"
         style="fill:#000000;fill-opacity:1;fill-rule:nonzero;stroke:none"
         d="m 7948.03,3975.76 76.21,-27.73 27.73,76.21 -76.21,27.73 z m -12.99,-6.05 34.67,95.25 95.25,-34.67 -34.67,-95.25 -95.25,34.67" /><path
         id="path404"
         style="fill:#000000;fill-opacity:1;fill-rule:nonzero;stroke:none"
         d="m 7941.53,2972.73 85.74,-31.2 31.2,85.74 -85.74,31.2 z m -14.62,-6.81 39.01,107.17 107.17,-39.01 -39.01,-107.17 -107.17,39.01" /><path
         id="path406"
         style="fill:#000000;fill-opacity:1;fill-rule:nonzero;stroke:none"
         d="m 7935.04,1969.71 95.25,-34.67 34.67,95.25 -95.25,34.67 z m -16.24,-7.58 43.33,119.07 119.07,-43.33 -43.33,-119.07 -119.07,43.33" /><path
         id="path408"
         style="fill:#000000;fill-opacity:1;fill-rule:nonzero;stroke:none"
         d="m 7928.54,966.68 104.78,-38.141 38.14,104.781 -104.78,38.14 z m -17.87,-8.328 47.68,130.978 130.98,-47.68 -47.68,-130.978 -130.98,47.68" /><path
         id="path410"
         style="fill:#000000;fill-opacity:1;fill-rule:nonzero;stroke:none"
         d="M 7922.04,-36.3008 8036.35,-78 8077.96,36.3516 7963.65,77.9609 Z m -19.48,-9.0976 52,142.8398 142.88,-52 -52,-142.8398 -142.88,52" /><path
         id="path412"
         style="fill:#000000;fill-opacity:1;fill-rule:nonzero;stroke:none"
         d="m 8990.25,9995.45 14.29,-5.2 5.21,14.25 -14.29,5.2 z m -2.43,-1.13 6.5,17.88 17.86,-6.5 -6.5,-17.88 -17.86,6.5" /><path
         id="path414"
         style="fill:#000000;fill-opacity:1;fill-rule:nonzero;stroke:none"
         d="m 8985.38,8993.18 21.44,-7.8 7.8,21.44 -21.44,7.8 z m -3.65,-1.7 9.75,26.79 26.79,-9.75 -9.75,-26.79 -26.79,9.75" /><path
         id="path416"
         style="fill:#000000;fill-opacity:1;fill-rule:nonzero;stroke:none"
         d="m 8980.51,7990.91 28.58,-10.4 10.4,28.58 -28.58,10.4 z m -4.88,-2.27 13.01,35.72 35.73,-13 -13.01,-35.72 -35.73,13" /><path
         id="path418"
         style="fill:#000000;fill-opacity:1;fill-rule:nonzero;stroke:none"
         d="m 8975.63,6988.64 35.73,-13 13.01,35.72 -35.73,13 z m -6.08,-2.84 16.25,44.65 44.65,-16.25 -16.25,-44.65 -44.65,16.25" /><path
         id="path420"
         style="fill:#000000;fill-opacity:1;fill-rule:nonzero;stroke:none"
         d="m 8970.76,5986.37 42.87,-15.61 15.61,42.87 -42.87,15.61 z m -7.3,-3.41 19.5,53.58 53.58,-19.5 -19.5,-53.58 -53.58,19.5" /><path
         id="path422"
         style="fill:#000000;fill-opacity:1;fill-rule:nonzero;stroke:none"
         d="m 8965.9,4984.09 50.01,-18.19 18.19,50.01 -50.01,18.19 z m -8.54,-3.97 22.76,62.52 62.52,-22.76 -22.76,-62.52 -62.52,22.76" /><path
         id="path424"
         style="fill:#000000;fill-opacity:1;fill-rule:nonzero;stroke:none"
         d="m 8961.03,3981.83 57.14,-20.8 20.8,57.14 -57.14,20.8 z m -9.75,-4.55 26.01,71.44 71.43,-26 -26.01,-71.44 -71.43,26" /><path
         id="path426"
         style="fill:#000000;fill-opacity:1;fill-rule:nonzero;stroke:none"
         d="m 8956.15,2979.55 64.3,-23.4 23.4,64.3 -64.3,23.4 z m -10.96,-5.11 29.25,80.37 80.37,-29.25 -29.25,-80.37 -80.37,29.25" /><path
         id="path428"
         style="fill:#000000;fill-opacity:1;fill-rule:nonzero;stroke:none"
         d="m 8951.28,1977.28 71.43,-26 26.01,71.44 -71.43,26 z m -12.19,-5.68 32.51,89.31 89.31,-32.51 -32.51,-89.31 -89.31,32.51" /><path
         id="path430"
         style="fill:#000000;fill-opacity:1;fill-rule:nonzero;stroke:none"
         d="m 8946.41,975.012 78.58,-28.602 28.6,78.58 -78.58,28.6 z m -13.4,-6.25 35.75,98.228 98.23,-35.75 -35.75,-98.228 -98.23,35.75" /><path
         id="path432"
         style="fill:#000000;fill-opacity:1;fill-rule:nonzero;stroke:none"
         d="m 8941.53,-27.3008 85.74,-31.1992 31.2,85.7695 -85.74,31.1993 z m -14.62,-6.7969 39.01,107.1875 107.17,-39.0078 -39.01,-107.1797 -107.17,39" /><path
         id="path434"
         style="fill:#000000;fill-opacity:1;fill-rule:nonzero;stroke:none"
         d="m 9993.51,9996.97 9.49,-3.46 3.5,9.49 -9.53,3.5 z m -1.63,-0.76 4.33,11.89 11.89,-4.3 -4.3,-11.92 -11.92,4.33" /><path
         id="path436"
         style="fill:#000000;fill-opacity:1;fill-rule:nonzero;stroke:none"
         d="m 9990.25,8995.45 14.25,-5.2 5.2,14.3 -14.24,5.2 z m -2.43,-1.13 6.5,17.86 17.88,-6.5 -6.5,-17.86 -17.88,6.5" /><path
         id="path438"
         style="fill:#000000;fill-opacity:1;fill-rule:nonzero;stroke:none"
         d="m 9987.01,7993.94 19.09,-6.93 6.9,19.05 -19.05,6.93 z m -3.25,-1.51 8.66,23.81 23.78,-8.67 -8.6,-23.81 -23.84,8.67" /><path
         id="path440"
         style="fill:#000000;fill-opacity:1;fill-rule:nonzero;stroke:none"
         d="m 9983.76,6992.43 23.84,-8.67 8.6,23.81 -23.78,8.67 z m -4.06,-1.9 10.84,29.77 29.76,-10.83 -10.8,-29.77 -29.8,10.83" /><path
         id="path442"
         style="fill:#000000;fill-opacity:1;fill-rule:nonzero;stroke:none"
         d="m 9980.51,5990.91 28.59,-10.4 10.4,28.58 -28.59,10.4 z m -4.88,-2.27 13.01,35.73 35.76,-13.01 -13,-35.73 -35.77,13.01" /><path
         id="path444"
         style="fill:#000000;fill-opacity:1;fill-rule:nonzero;stroke:none"
         d="m 9977.27,4989.39 33.33,-12.12 12.1,33.34 -33.31,12.12 z m -5.69,-2.64 15.17,41.67 41.65,-15.17 -15.1,-41.67 -41.72,15.17" /><path
         id="path446"
         style="fill:#000000;fill-opacity:1;fill-rule:nonzero;stroke:none"
         d="m 9974.01,3987.88 38.09,-13.87 13.9,38.11 -38.12,13.87 z m -6.49,-3.03 17.33,47.63 47.65,-17.33 -17.4,-47.63 -47.58,17.33" /><path
         id="path448"
         style="fill:#000000;fill-opacity:1;fill-rule:nonzero;stroke:none"
         d="m 9970.76,2986.37 42.84,-15.61 15.6,42.87 -42.83,15.61 z m -7.3,-3.41 19.5,53.58 53.54,-19.5 -19.5,-53.58 -53.54,19.5" /><path
         id="path450"
         style="fill:#000000;fill-opacity:1;fill-rule:nonzero;stroke:none"
         d="m 9967.52,1984.85 47.58,-17.33 17.4,47.63 -47.65,17.33 z m -8.13,-3.79 21.67,59.55 59.54,-21.67 -21.7,-59.55 -59.51,21.67" /><path
         id="path452"
         style="fill:#000000;fill-opacity:1;fill-rule:nonzero;stroke:none"
         d="m 9964.27,983.34 52.43,-19.07 19,52.39 -52.36,19.07 z m -8.94,-4.168 23.84,65.488 65.53,-23.83 -23.9,-65.49 -65.47,23.832" /><path
         id="path454"
         style="fill:#000000;fill-opacity:1;fill-rule:nonzero;stroke:none"
         d="M 9961.03,-18.1992 10018.2,-39 l 20.8,57.1719 -57.17,20.7969 z m -9.75,-4.5 26.01,71.418 71.41,-26 -26,-71.418 -71.42,26" /></g></g></svg>