<?xml version="1.0" encoding="UTF-8" standalone="no"?>
<svg
   xmlns:dc="http://purl.org/dc/elements/1.1/"
   xmlns:cc="http://creativecommons.org/ns#"
   xmlns:rdf="http://www.w3.org/1999/02/22-rdf-syntax-ns#"
   xmlns:svg="http://www.w3.org/2000/svg"
   xmlns="http://www.w3.org/2000/svg"
   viewBox="0 0 1893.3333 1066.6667"
   height="1066.6667"
   width="1893.3333"
   xml:space="preserve"
   id="svg2"
   version="1.1"><metadata
     id="metadata8"><rdf:RDF><cc:Work
         rdf:about=""><dc:format>image/svg+xml</dc:format><dc:type
           rdf:resource="http://purl.org/dc/dcmitype/StillImage" /></cc:Work></rdf:RDF></metadata><defs
     id="defs6" /><g
     transform="matrix(1.3333333,0,0,-1.3333333,0,1066.6667)"
     id="g10"><g
       transform="scale(0.1)"
       id="g12"><path
         id="path14"
         style="fill:#e4e4e3;fill-opacity:1;fill-rule:nonzero;stroke:none"
         d="M 461.211,8070 440,8091.21 -321.211,7330 -300,7308.79 461.211,8070" /><path
         id="path16"
         style="fill:#e4e4e3;fill-opacity:1;fill-rule:nonzero;stroke:none"
         d="M 7100,7308.79 7861.21,8070 7840,8091.21 7078.79,7330 7100,7308.79" /><path
         id="path18"
         style="fill:#e4e4e3;fill-opacity:1;fill-rule:nonzero;stroke:none"
         d="m 13781.2,7330 -761.2,761.21 -21.2,-21.21 761.2,-761.21 21.2,21.21" /><path
         id="path20"
         style="fill:#e4e4e3;fill-opacity:1;fill-rule:nonzero;stroke:none"
         d="m 1158.79,7330 21.21,-21.21 718.79,-718.79 -740,-740 21.21,-21.21 740,740 21.21,21.21 L 1920,6611.21 1201.21,7330 1920,8048.79 2638.79,7330 l 21.21,-21.21 21.21,21.21 740,740 -21.21,21.21 -740,-740 L 1941.21,8070 1920,8091.21 1898.79,8070 1180,7351.21 1158.79,7330" /><path
         id="path22"
         style="fill:#e4e4e3;fill-opacity:1;fill-rule:nonzero;stroke:none"
         d="M 7840,7308.79 8558.79,6590 7840,5871.21 7121.21,6590 Z M 8558.79,5110 7840,4391.21 7818.79,4370 7100,3651.21 6381.21,4370 7100,5088.79 7121.21,5110 7840,5828.79 Z M 6360,7308.79 7078.79,6590 7100,6568.79 7818.79,5850 7100,5131.21 7078.79,5110 6360,4391.21 6338.79,4370 6360,4348.79 7078.79,3630 7100,3608.79 7121.21,3630 7840,4348.79 8558.79,3630 l 21.21,-21.21 740,-740 21.21,21.21 -740,740 -21.21,21.21 -718.79,718.79 718.79,718.79 21.21,21.21 718.79,718.79 718.8,-718.79 21.2,-21.21 21.2,21.21 740,740 -21.2,21.21 -740,-740 -718.79,718.79 718.79,718.79 21.2,21.21 718.8,718.79 21.2,21.21 718.8,718.79 740,-740 21.2,21.21 -740,740 -21.2,21.21 -21.2,-21.21 -718.8,-718.79 -740,740 -21.2,-21.21 740,-740 -718.8,-718.79 -740,740 L 9298.79,7330 10038.8,6590 9320,5871.21 9298.79,5850 8580,5131.21 7861.21,5850 8580,6568.79 8601.21,6590 8580,6611.21 7861.21,7330 l 740,740 -21.21,21.21 -740,-740 L 7818.79,7330 7100,6611.21 6381.21,7330 l 740,740 -21.21,21.21 -740,-740 -740,740 -21.21,-21.21 740,-740 21.21,-21.21" /><path
         id="path24"
         style="fill:#e4e4e3;fill-opacity:1;fill-rule:nonzero;stroke:none"
         d="m 8558.79,7330 21.21,-21.21 718.79,-718.79 -740,-740 21.21,-21.21 740,740 21.21,21.21 -21.21,21.21 -718.79,718.79 718.79,718.79 740,-740 21.2,21.21 -739.99,740 L 9320,8091.21 9298.79,8070 8580,7351.21 8558.79,7330" /><path
         id="path26"
         style="fill:#e4e4e3;fill-opacity:1;fill-rule:nonzero;stroke:none"
         d="M 13020,5871.21 12301.2,6590 13020,7308.79 13738.8,6590 Z M 13760,5088.79 14478.8,4370 13760,3651.21 13041.2,4370 Z M 10038.8,1410 9320,691.211 9298.79,670 8580,-48.7891 7861.21,670 8580,1388.79 8601.21,1410 9320,2128.79 Z M 7121.21,1410 7840,2128.79 8558.79,1410 7840,691.211 Z M 6360,691.211 5641.21,1410 6360,2128.79 7078.79,1410 Z M 5641.21,2890 6360,3608.79 7078.79,2890 6360,2171.21 Z M 7818.79,2150 7100,1431.21 6381.21,2150 7100,2868.79 Z M 7840,3608.79 8558.79,2890 7840,2171.21 7121.21,2890 Z M 9298.79,2150 8580,1431.21 7861.21,2150 8580,2868.79 Z M 4901.21,5110 5620,5828.79 6338.79,5110 5620,4391.21 Z m -740,740 L 4140,5871.21 3421.21,6590 4140,7308.79 4858.79,6590 4880,6568.79 4901.21,6590 5620,7308.79 6338.79,6590 5620,5871.21 5598.79,5850 4880,5131.21 Z m 2917.58,0 L 6360,5131.21 5641.21,5850 6360,6568.79 Z m 7421.21,1458.79 21.2,21.21 -21.2,21.21 -740,740 -21.2,-21.21 740,-740 -718.8,-718.79 -718.8,718.79 -21.2,21.21 -740,740 -21.2,-21.21 740,-740 -718.8,-718.79 -718.8,718.79 -21.2,21.21 -21.2,-21.21 -718.8,-718.79 -21.2,-21.21 -740,-740 21.2,-21.21 740,740 L 11518.8,5850 10800,5131.21 10778.8,5110 10060,4391.21 9341.21,5110 9320,5131.21 9298.79,5110 8580,4391.21 8558.79,4370 8580,4348.79 9298.79,3630 9320,3608.79 10038.8,2890 9320,2171.21 8601.21,2890 8580,2911.21 7861.21,3630 7840,3651.21 7818.79,3630 7100,2911.21 6381.21,3630 6360,3651.21 5641.21,4370 6360,5088.79 6381.21,5110 7100,5828.79 7121.21,5850 7100,5871.21 6381.21,6590 6360,6611.21 5641.21,7330 l -21.21,21.21 -740,740 -21.21,-21.21 740,-740 L 4880,6611.21 4161.21,7330 4140,7351.21 4118.79,7330 3400,6611.21 3378.79,6590 3400,6568.79 4118.79,5850 3400,5131.21 3378.79,5110 3400,5088.79 4118.79,4370 3400,3651.21 3378.79,3630 2660,2911.21 2638.79,2890 l -740,-740 21.21,-21.21 740,740 21.21,21.21 L 3400,3608.79 3421.21,3630 4140,4348.79 4161.21,4370 4140,4391.21 3421.21,5110 4140,5828.79 4858.79,5110 4880,5088.79 5598.79,4370 5620,4348.79 6338.79,3630 5620,2911.21 5598.79,2890 5620,2868.79 6338.79,2150 5620,1431.21 l -740,740 -21.21,-21.21 740,-740 L 5620,1388.79 6338.79,670 5620,-48.7891 4901.21,670 4880,691.211 4140,1431.21 4118.79,1410 l 740,-740 -740,-740 L 4140,-91.2109 4880,648.789 5598.79,-70 5620,-91.2109 5641.21,-70 6360,648.789 6381.21,670 7100,1388.79 7818.79,670 7078.79,-70 7100,-91.2109 7840,648.789 8558.79,-70 8580,-91.2109 8601.21,-70 9320,648.789 9341.21,670 l 718.79,718.79 21.2,21.21 718.8,718.79 718.8,-718.79 21.2,-21.21 21.2,21.21 740,740 -21.2,21.21 -740,-740 -718.8,718.79 -21.2,21.21 -21.2,-21.21 -718.8,-718.79 -718.79,718.79 718.79,718.79 21.2,21.21 -21.2,21.21 L 9341.21,3630 9320,3651.21 8601.21,4370 9320,5088.79 10038.8,4370 l 21.2,-21.21 740,-740 21.2,21.21 -740,740 718.8,718.79 740,-740 21.2,21.21 -740,740 718.8,718.79 21.2,21.21 -21.2,21.21 -718.8,718.79 718.8,718.79 718.8,-718.79 21.2,-21.21 718.8,-718.79 -718.8,-718.79 -21.2,-21.21 21.2,-21.21 718.8,-718.79 21.2,-21.21 718.8,-718.79 -740,-740 21.2,-21.21 740,740 740,-740 21.2,21.21 -740,740 718.8,718.79 21.2,21.21 -21.2,21.21 -718.8,718.79 -21.2,21.21 -21.2,-21.21 -718.8,-718.79 -718.8,718.79 718.8,718.79 21.2,21.21 718.8,718.79 740,-740 21.2,21.21 -740,740 718.8,718.79" /><path
         id="path28"
         style="fill:#e4e4e3;fill-opacity:1;fill-rule:nonzero;stroke:none"
         d="m 5620,6611.21 -740,-740 -740,740 -21.21,-21.21 740,-740 21.21,-21.21 21.21,21.21 740,740 -21.21,21.21" /><path
         id="path30"
         style="fill:#e4e4e3;fill-opacity:1;fill-rule:nonzero;stroke:none"
         d="m 13760,5871.21 -21.2,-21.21 -740,-740 21.2,-21.21 740,740 740,-740 21.2,21.21 -740,740 -21.2,21.21" /><path
         id="path32"
         style="fill:#e4e4e3;fill-opacity:1;fill-rule:nonzero;stroke:none"
         d="M 7100,4348.79 7861.21,5110 7840,5131.21 7078.79,4370 7100,4348.79" /><path
         id="path34"
         style="fill:#e4e4e3;fill-opacity:1;fill-rule:nonzero;stroke:none"
         d="M 440,3608.79 1158.79,2890 440,2171.21 -278.789,2890 Z m 740,740 L 1898.79,3630 1180,2911.21 461.211,3630 Z M -321.211,2890 -300,2868.79 418.789,2150 440,2128.79 461.211,2150 1180,2868.79 1201.21,2890 1920,3608.79 1941.21,3630 2660,4348.79 2681.21,4370 2660,4391.21 1941.21,5110 l 740,740 -21.21,21.21 -740,-740 L 1898.79,5110 1920,5088.79 2638.79,4370 1920,3651.21 1201.21,4370 1180,4391.21 1158.79,4370 440,3651.21 l -740,740 -21.211,-21.21 740,-740 L -300,2911.21 -321.211,2890" /><path
         id="path36"
         style="fill:#e4e4e3;fill-opacity:1;fill-rule:nonzero;stroke:none"
         d="m 4140,2868.79 21.21,21.21 740,740 -21.21,21.21 -740,-740 -21.21,-21.21 -740,-740 21.21,-21.21 740,740" /><path
         id="path38"
         style="fill:#e4e4e3;fill-opacity:1;fill-rule:nonzero;stroke:none"
         d="M 13760,1431.21 13041.2,2150 13760,2868.79 14478.8,2150 Z m -2220,740 -718.8,718.79 718.8,718.79 718.8,-718.79 z M 12280,4348.79 12998.8,3630 12280,2911.21 11561.2,3630 Z M 14521.2,2150 l -21.2,21.21 -718.8,718.79 -21.2,21.21 -21.2,-21.21 -718.8,-718.79 -718.8,718.79 718.8,718.79 21.2,21.21 -21.2,21.21 -718.8,718.79 -21.2,21.21 -718.8,718.79 718.8,718.79 21.2,21.21 -21.2,21.21 -740,740 -21.2,-21.21 740,-740 -718.8,-718.79 -21.2,-21.21 21.2,-21.21 718.8,-718.79 -718.8,-718.79 -740,740 -21.2,-21.21 740,-740 -718.8,-718.79 -718.8,718.79 -21.2,21.21 -740,740 -21.21,-21.21 740.01,-740 21.2,-21.21 718.8,-718.79 -740,-740 21.2,-21.21 740,740 718.8,-718.79 21.2,-21.21 21.2,21.21 718.8,718.79 L 12998.8,2150 12280,1431.21 12258.8,1410 11540,691.211 10821.2,1410 10800,1431.21 10778.8,1410 10060,691.211 10038.8,670 9298.79,-70 9320,-91.2109 l 740,739.9999 21.2,21.211 718.8,718.79 718.8,-718.79 -740,-740 21.2,-21.2109 740,739.9999 740,-739.9999 21.2,21.2109 -740,740 718.8,718.79 740,-740.001 21.2,21.211 -740,740 718.8,718.79 718.8,-718.79 21.2,-21.21 718.8,-718.79 -740,-740 21.2,-21.2109 740,739.9999 21.2,21.211 -21.2,21.211 -718.8,718.789 718.8,718.79 21.2,21.21" /><path
         id="path40"
         style="fill:#e4e4e3;fill-opacity:1;fill-rule:nonzero;stroke:none"
         d="m 1180,1388.79 740,-740.001 21.21,21.211 -740,740 L 1180,1431.21 1158.79,1410 440,691.211 418.789,670 440,648.789 1180,-91.2109 1201.21,-70 461.211,670 1180,1388.79" /><path
         id="path42"
         style="fill:#e4e4e3;fill-opacity:1;fill-rule:nonzero;stroke:none"
         d="M 8580,648.789 9341.21,1410 9320,1431.21 8558.79,670 8580,648.789" /><path
         id="path44"
         style="fill:#e4e4e3;fill-opacity:1;fill-rule:nonzero;stroke:none"
         d="M 3400,-48.7891 2681.21,670 3400,1388.79 4118.79,670 Z M 1941.21,1410 2660,2128.79 3378.79,1410 2660,691.211 Z M 3400,2868.79 3421.21,2890 4140,3608.79 4161.21,3630 4880,4348.79 5598.79,3630 4880,2911.21 4858.79,2890 4140,2171.21 4118.79,2150 3400,1431.21 2681.21,2150 Z M 440,4391.21 -278.789,5110 440,5828.79 1158.79,5110 Z M -278.789,6590 440,7308.79 1158.79,6590 440,5871.21 Z M 4161.21,670 4140,691.211 3421.21,1410 4140,2128.79 4858.79,1410 4880,1388.79 5620,648.789 5641.21,670 l -740,740 -21.21,21.21 -718.79,718.79 718.79,718.79 740,-740 21.21,21.21 -740,740 718.79,718.79 21.21,21.21 -21.21,21.21 -718.79,718.79 -21.21,21.21 -740,740 -21.21,-21.21 740,-740 L 4140,3651.21 4118.79,3630 3400,2911.21 3378.79,2890 2660,2171.21 2638.79,2150 1920,1431.21 1201.21,2150 1920,2868.79 1941.21,2890 2660,3608.79 2681.21,3630 3400,4348.79 3421.21,4370 3400,4391.21 2681.21,5110 3400,5828.79 3421.21,5850 3400,5871.21 2681.21,6590 3400,7308.79 l 21.21,21.21 718.79,718.79 740,-740 21.21,21.21 -740,740 L 4140,8091.21 4118.79,8070 3400,7351.21 3378.79,7330 2660,6611.21 l -740,740 -21.21,-21.21 740,-740 L 1920,5871.21 1898.79,5850 1180,5131.21 461.211,5850 1180,6568.79 1201.21,6590 1180,6611.21 461.211,7330 1201.21,8070 1180,8091.21 440,7351.21 418.789,7330 -300,6611.21 -321.211,6590 -300,6568.79 418.789,5850 -300,5131.21 -321.211,5110 -300,5088.79 418.789,4370 440,4348.79 461.211,4370 1180,5088.79 l 740,-740 21.21,21.21 -740,740 L 1920,5828.79 1941.21,5850 2660,6568.79 3378.79,5850 2660,5131.21 2638.79,5110 2660,5088.79 3378.79,4370 2660,3651.21 2638.79,3630 1920,2911.21 1898.79,2890 1180,2171.21 1158.79,2150 440,1431.21 l -740,740 -21.211,-21.21 740,-740 L -300,691.211 -321.211,670 -300,648.789 440,-91.2109 461.211,-70 -278.789,670 440,1388.79 461.211,1410 1180,2128.79 1898.79,1410 1920,1388.79 2638.79,670 1920,-48.7891 1180,691.211 1158.79,670 1898.79,-70 1920,-91.2109 1941.21,-70 2660,648.789 3378.79,-70 3400,-91.2109 3421.21,-70 4140,648.789 4161.21,670" /><path
         id="path46"
         style="fill:#e4e4e3;fill-opacity:1;fill-rule:nonzero;stroke:none"
         d="M 7100,691.211 6338.79,-70 6360,-91.2109 7121.21,670 7100,691.211" /><path
         id="path48"
         style="fill:#e4e4e3;fill-opacity:1;fill-rule:nonzero;stroke:none"
         d="M 10800,691.211 10038.8,-70 10060,-91.2109 10821.2,670 10800,691.211" /><path
         id="path50"
         style="fill:#e4e4e3;fill-opacity:1;fill-rule:nonzero;stroke:none"
         d="m 13781.2,670 -21.2,21.211 -740,739.999 -21.2,-21.21 740,-740 -718.8,-718.7891 -740,740.0001 -21.2,-21.211 740,-740 21.2,-21.2109 21.2,21.2109 718.8,718.789 21.2,21.211" /></g></g></svg>